#!OML:ASF F:\VICON\USERDATA\INSTALL\rory3\rory3.ASF
:FULLY-SPECIFIED
:DEGREES
694
root 1.51507 30.69 -2.14678 -165.089 -20.6394 -181.098
lowerback 9.48017 -2.25839 -6.35399
upperback 1.38737 -3.74659 0.176722
thorax -3.44775 -1.82637 4.20444
lowerneck -18.6272 2.28671 -9.88154
upperneck 38.5689 3.00239 2.02485
head 16.9658 -1.02111 2.91093
rclavicle 2.26615e-014 1.11319e-014
rhumerus -17.2317 -0.920696 -76.8228
rradius 89.084
rwrist -10.6983
rhand -33.5437 5.64135
rfingers 7.12502
rthumb -6.73908 -24.2314
lclavicle 2.26615e-014 1.11319e-014
lhumerus 15.539 -25.789 82.3315
lradius 77.8528
lwrist 14.8317
lhand -23.6598 41.3311
lfingers 7.12502
lthumb 2.80594 71.2924
rfemur -21.6087 -1.87758 17.8181
rtibia 17.8786
rfoot -1.01723 -25.144
rtoes 18.6267
lfemur -55.944 7.60474 -33.8332
ltibia 69.6611
lfoot -28.2003 -5.14065
ltoes 0.728788
695
root 1.49348 30.728 -2.16883 -165.238 -20.9183 -181.107
lowerback 9.51438 -2.40474 -6.23144
upperback 1.4256 -3.93446 0.119555
thorax -3.41729 -1.92429 4.09695
lowerneck -18.9143 2.21663 -9.72543
upperneck 38.4753 2.96738 1.93233
head 16.9985 -1.00795 2.84274
rclavicle 8.54774e-015 2.22639e-014
rhumerus -17.209 -0.966126 -77.0328
rradius 88.462
rwrist -10.7955
rhand -33.4393 6.05088
rfingers 7.12502
rthumb -6.63827 -23.8251
lclavicle 8.54774e-015 2.22639e-014
lhumerus 15.0577 -25.7773 82.5131
lradius 77.74
lwrist 14.6803
lhand -23.6264 40.8562
lfingers 7.12502
lthumb 2.83816 70.817
rfemur -21.6419 -2.33218 17.9291
rtibia 18.9088
rfoot -2.06794 -24.902
rtoes 18.8308
lfemur -55.1689 7.13925 -33.645
ltibia 68.9211
lfoot -28.2256 -4.82358
ltoes 1.11767
696
root 1.47426 30.765 -2.18519 -165.025 -20.7537 -181.167
lowerback 9.28768 -2.42716 -6.40392
upperback 1.23715 -3.96207 0.11309
thorax -3.47373 -1.925 4.18233
lowerneck -18.9355 2.22282 -9.7686
upperneck 38.4185 2.99687 1.96365
head 16.9688 -0.993358 2.86929
rclavicle 6.16232e-015 1.66979e-014
rhumerus -17.4982 -0.948895 -77.1419
rradius 87.9959
rwrist -10.9326
rhand -33.3266 6.55161
rfingers 7.12502
rthumb -6.52954 -23.3277
lclavicle 6.16232e-015 1.66979e-014
lhumerus 14.3077 -25.67 82.925
lradius 77.8127
lwrist 14.9147
lhand -23.6429 40.7238
lfingers 7.12502
lthumb 2.82219 70.6848
rfemur -22.1697 -2.75702 17.944
rtibia 19.9266
rfoot -2.43277 -24.5324
rtoes 18.5765
lfemur -54.8496 6.91334 -33.6622
ltibia 68.2046
lfoot -28.2533 -4.49413
ltoes 1.50252
697
root 1.45494 30.805 -2.19903 -164.96 -20.4838 -181.11
lowerback 9.17275 -2.36884 -6.54233
upperback 1.06948 -3.88527 0.161234
thorax -3.58133 -1.87292 4.30099
lowerneck -18.6801 2.18827 -9.94601
upperneck 38.0932 2.9844 2.04957
head 16.7263 -0.980218 2.92769
rclavicle 3.49861e-014 -5.08889e-014
rhumerus -17.7451 -0.947293 -77.1126
rradius 87.4426
rwrist -11.0384
rhand -33.2244 7.06348
rfingers 7.12502
rthumb -6.43082 -22.8189
lclavicle 3.49861e-014 -5.08889e-014
lhumerus 13.5879 -25.7064 83.4585
lradius 77.6266
lwrist 14.7161
lhand -24.1496 39.9023
lfingers 7.12502
lthumb 2.33284 69.8693
rfemur -22.6351 -3.16736 18.0572
rtibia 21.0019
rfoot -2.46225 -23.9802
rtoes 17.6955
lfemur -54.458 6.86185 -33.5896
ltibia 67.5176
lfoot -28.2944 -4.08444
ltoes 1.68519
698
root 1.43581 30.8453 -2.212 -165.085 -20.3159 -180.889
lowerback 9.1514 -2.30288 -6.36009
upperback 1.0575 -3.77955 0.113391
thorax -3.60954 -1.82161 4.13731
lowerneck -18.6773 1.98364 -9.97254
upperneck 37.6827 2.73279 2.16237
head 16.5288 -1.01802 2.9357
rclavicle 2.84262e-014 3.97569e-014
rhumerus -17.7235 -1.20007 -77.2656
rradius 86.7591
rwrist -11.0682
rhand -33.1564 7.19366
rfingers 7.12502
rthumb -6.36522 -22.6907
lclavicle 2.84262e-014 3.97569e-014
lhumerus 13.2577 -25.8915 83.666
lradius 77.4196
lwrist 14.7008
lhand -24.437 39.6878
lfingers 7.12502
lthumb 2.05532 69.6576
rfemur -22.9495 -3.49806 18.3534
rtibia 22.1395
rfoot -2.23256 -23.2281
rtoes 16.1678
lfemur -53.9392 6.85285 -33.3176
ltibia 66.8626
lfoot -28.3341 -3.92293
ltoes 2.30867
699
root 1.42166 30.8838 -2.2242 -165.245 -20.2843 -180.817
lowerback 9.23645 -2.37697 -6.38509
upperback 1.10362 -3.88709 0.127963
thorax -3.59365 -1.87732 4.18124
lowerneck -18.8885 1.83372 -10.1421
upperneck 37.3829 2.64771 2.25165
head 16.4294 -1.02444 2.99262
rclavicle -4.57205e-014 -4.77083e-015
rhumerus -17.5657 -1.12405 -77.4866
rradius 86.1602
rwrist -11.108
rhand -32.9735 7.28079
rfingers 7.12502
rthumb -6.18862 -22.6088
lclavicle -4.57205e-014 -4.77083e-015
lhumerus 12.9712 -25.7021 83.8115
lradius 77.2152
lwrist 14.5709
lhand -24.4453 39.4561
lfingers 7.12502
lthumb 2.04733 69.4261
rfemur -23.143 -3.80165 18.5262
rtibia 23.3074
rfoot -1.94641 -22.2061
rtoes 14.777
lfemur -53.326 6.69486 -33.1393
ltibia 66.1933
lfoot -28.2602 -3.7072
ltoes 2.72561
700
root 1.40877 30.9266 -2.23534 -165.431 -20.2594 -180.804
lowerback 9.45234 -2.43311 -6.34592
upperback 1.11816 -3.98313 0.0053894
thorax -3.69938 -1.92437 4.05455
lowerneck -19.1662 1.8015 -9.99247
upperneck 37.204 2.66179 2.23162
head 16.4071 -0.971386 2.96652
rclavicle 5.32743e-014 1.03368e-014
rhumerus -17.689 -1.25286 -77.8782
rradius 85.7518
rwrist -11.0701
rhand -32.7184 7.55633
rfingers 7.12502
rthumb -5.94237 -22.3403
lclavicle 5.32743e-014 1.03368e-014
lhumerus 12.6073 -25.6674 83.8552
lradius 76.9894
lwrist 14.4098
lhand -24.7355 38.8758
lfingers 7.12502
lthumb 1.767 68.8482
rfemur -23.2818 -4.14013 18.6384
rtibia 24.5264
rfoot -1.68976 -20.8823
rtoes 13.8904
lfemur -52.6543 6.52862 -33.0239
ltibia 65.5176
lfoot -28.2543 -3.38819
ltoes 2.73255
701
root 1.39359 30.9727 -2.24901 -165.567 -20.083 -180.779
lowerback 9.46939 -2.42323 -6.5631
upperback 1.12372 -3.99077 0.0734769
thorax -3.68254 -1.92562 4.24855
lowerneck -19.2657 1.71499 -10.0506
upperneck 36.9089 2.67789 2.11885
head 16.2842 -0.954785 2.92964
rclavicle -4.75095e-014 1.03368e-014
rhumerus -17.734 -1.24607 -77.9161
rradius 85.2834
rwrist -11.3632
rhand -32.2942 8.09979
rfingers 7.12502
rthumb -5.53282 -21.808
lclavicle -4.75095e-014 1.03368e-014
lhumerus 12.1862 -25.4778 84.2649
lradius 76.7506
lwrist 14.2318
lhand -25.3462 38.0602
lfingers 7.12502
lthumb 1.1772 68.0367
rfemur -23.5186 -4.57836 18.7851
rtibia 25.7618
rfoot -1.12253 -19.256
rtoes 11.8543
lfemur -52.0126 6.55607 -32.9534
ltibia 64.8323
lfoot -28.2463 -3.16587
ltoes 2.90313
702
root 1.3768 31.0145 -2.2621 -165.627 -19.8161 -180.751
lowerback 9.49651 -2.36258 -6.67211
upperback 1.02096 -3.92461 0.0612796
thorax -3.80683 -1.88239 4.29509
lowerneck -19.1998 1.61588 -10.0749
upperneck 36.6535 2.56771 2.12723
head 16.1482 -0.975342 2.91411
rclavicle 1.35174e-014 9.54166e-015
rhumerus -18.1319 -1.33867 -78.0148
rradius 85.0199
rwrist -11.673
rhand -31.9053 8.7879
rfingers 7.12502
rthumb -5.15728 -21.1293
lclavicle 1.35174e-014 9.54166e-015
lhumerus 11.6554 -25.4425 84.6229
lradius 76.5936
lwrist 14.1056
lhand -25.5987 37.7649
lfingers 7.12502
lthumb 0.933338 67.7426
rfemur -23.878 -4.86024 18.9085
rtibia 26.9853
rfoot -0.528435 -17.5564
rtoes 8.10067
lfemur -51.4814 6.62725 -32.9098
ltibia 64.1539
lfoot -28.1717 -2.92797
ltoes 2.86064
703
root 1.36102 31.0568 -2.27532 -165.71 -19.4855 -180.697
lowerback 9.53524 -2.26781 -6.72191
upperback 0.925723 -3.8117 -0.00453156
thorax -3.94337 -1.81743 4.24759
lowerneck -19.129 1.53659 -9.91931
upperneck 36.381 2.46865 2.01734
head 16.0085 -0.981217 2.81807
rclavicle 6.48038e-014 1.35174e-014
rhumerus -18.4254 -1.4882 -78.202
rradius 84.5891
rwrist -11.8348
rhand -31.5037 9.36684
rfingers 7.12502
rthumb -4.76951 -20.5595
lclavicle 6.48038e-014 1.35174e-014
lhumerus 11.044 -25.5018 84.9093
lradius 76.4649
lwrist 13.8824
lhand -25.7041 37.327
lfingers 7.12502
lthumb 0.831567 67.3051
rfemur -24.2674 -4.77014 18.9369
rtibia 28.2316
rfoot -0.58466 -16.1224
rtoes 5.45775
lfemur -50.991 6.7543 -32.8549
ltibia 63.4733
lfoot -28.0456 -2.57341
ltoes 2.31472
704
root 1.34519 31.1031 -2.29011 -165.822 -19.2403 -180.688
lowerback 9.52695 -2.22812 -6.75298
upperback 0.898775 -3.76945 -0.113709
thorax -3.97781 -1.79538 4.14663
lowerneck -19.1284 1.46297 -9.82276
upperneck 36.1628 2.34036 2.088
head 15.9086 -0.984827 2.80831
rclavicle 4.25399e-014 3.33958e-014
rhumerus -18.2145 -1.58918 -78.4911
rradius 83.5953
rwrist -11.8552
rhand -31.3319 9.69471
rfingers 7.12502
rthumb -4.60363 -20.2353
lclavicle 4.25399e-014 3.33958e-014
lhumerus 10.5016 -25.5046 85.1351
lradius 76.3119
lwrist 13.6327
lhand -25.8595 37.0667
lfingers 7.12502
lthumb 0.681428 67.0454
rfemur -24.5664 -4.70934 18.9204
rtibia 29.4943
rfoot -0.916508 -14.8226
rtoes 4.48265
lfemur -50.4126 6.78809 -32.8045
ltibia 62.7772
lfoot -27.9723 -2.23778
ltoes 1.87402
